# xmcd CD database file generated by OrangeCD 5.2
#
# Track frame offsets:
#	150
#	23833
#	50508
#	71424
#	90313
#	115069
#	130792
#	153057
#	174851
#	195746
#	216414
#	236207
#	256387
#	274050
#	298317
#
# Disc length: 4198 seconds
#
# Revision: 2
# Processed by: cddbd v1.5.1PL0 Copyright (c) Steve Scherf et al.
# Submitted via: OrangeCD 5.2
#
DISCID=d410640f
DTITLE=Various Artist - So Amazing   An All-Star Tribute To Luther Vandross
DYEAR=2005
DGENRE=Tribute
TTITLE0=Mary J. Blige - Never Too Much
TTITLE1=Usher - Superstar
TTITLE2=Fantasia - 'Til My Baby Comes Home
TTITLE3=Beyonce and Stevie Wonder - So Amazing
TTITLE4=Aretha Franklin - A House Is Not A Home
TTITLE5=Donna Summer - Power Of Love
TTITLE6=Alicia Keys and Jermaine Paul - If This World Were Mine
TTITLE7=Elton John and Luther Vandross - Anyone Who Had A Heart
TTITLE8=Celine Dion - Dance With My Father
TTITLE9=Wyclef Jean - Always and Forever
TTITLE10=Babyface - If Only For One Night
TTITLE11=Patti Labelle - Here and Now
TTITLE12=John Legend - Love Won't Let Me Wait
TTITLE13=Angie Stone - Since I Lost My Baby
TTITLE14=Jamie Foxx - Creepin'
EXTD=YEAR: 2005
EXTT0=
EXTT1=
EXTT2=
EXTT3=
EXTT4=
EXTT5=
EXTT6=
EXTT7=
EXTT8=
EXTT9=
EXTT10=
EXTT11=
EXTT12=
EXTT13=
EXTT14=
PLAYORDER=
